<svg xmlns="http://www.w3.org/2000/svg" x="0px" y="0px"
width="26" height="26"
viewBox="0 0 172 172"
style=" fill:#000000;"><g fill="none" fill-rule="nonzero" stroke="none" stroke-width="1" stroke-linecap="butt" stroke-linejoin="miter" stroke-miterlimit="10" stroke-dasharray="" stroke-dashoffset="0" font-family="none" font-weight="none" font-size="none" text-anchor="none" style="mix-blend-mode: normal"><path d="M0,172v-172h172v172z" fill="#e74c3c"></path><g fill="#ffffff"><path d="M33.07692,33.07692c-11.24099,0 -19.84615,8.60517 -19.84615,19.84615v6.61538h-6.61538c-3.97956,0 -6.61538,2.63582 -6.61538,6.61538v39.69231c0,3.97957 2.63582,6.61538 6.61538,6.61538h6.61538v6.61538c0,11.24099 8.60517,19.84615 19.84615,19.84615h119.07692c11.24099,0 19.84615,-8.60517 19.84615,-19.84615v-66.15385c0,-11.24099 -8.60517,-19.84615 -19.84615,-19.84615zM33.07692,46.30769h52.92308v79.38462h-52.92308c-3.97956,0 -6.61538,-2.63581 -6.61538,-6.61538v-19.84615h-13.23077v-26.46154h13.23077v-19.84615c0,-3.97956 2.63582,-6.61538 6.61538,-6.61538z"></path></g></g></svg>